<svg width="83" height="26" viewBox="0 0 83 26" fill="none" xmlns="http://www.w3.org/2000/svg">
<path fill-rule="evenodd" clip-rule="evenodd" d="M38.2515 5.49696L28.139 23.578C27.4754 24.7645 26.2225 25.4994 24.8632 25.4994H21.2012V25.4742L31.1627 7.73633C31.4237 7.27151 31.4186 6.70288 31.1493 6.24271C30.8798 5.78255 30.3866 5.49993 29.8536 5.49993H25.517C24.5763 5.49993 23.6958 5.96327 23.1634 6.73868L22.9721 6.47915C22.1325 5.33912 22.006 3.82368 22.6446 2.56014C23.2833 1.2966 24.5787 0.5 25.9945 0.5H35.2524L33.7023 3.26034C33.4412 3.72538 33.4463 4.2938 33.7156 4.75396C33.9849 5.21413 34.4781 5.49696 35.0113 5.49696H38.2515ZM41.2007 25.4994H41.0988L32.6802 15.4996H37.4473C38.4426 15.4996 39.3975 15.8951 40.1013 16.5989C40.8053 17.3029 41.2007 18.2576 41.2007 19.2531V25.4994Z" fill="white"/>
<path d="M19.5781 25.5003H12.5718L12.1134 22.3377H7.52993L6.94037 25.5003H0L5.89299 0.500977H14.1429L19.5781 25.5003ZM11.2623 17.0537L9.95273 6.57732L8.38101 17.0537H11.2623Z" fill="white"/>
<path d="M61.1919 25.5003H53.9894C53.662 24.78 53.4003 24.2169 53.2694 23.8109C52.7456 22.5996 52.3524 21.565 52.0251 20.7073C51.5667 19.5221 51.0433 18.0555 50.454 16.3138C50.1921 15.6983 49.9303 14.8798 49.6029 13.8583V24.4985C49.6029 25.0485 49.1446 25.5003 48.6207 25.5003H42.8582L42.793 0.500977H49.6029V11.128L51.4361 5.92254L53.4657 0.500977H60.4719L55.1685 12.4769L61.1919 25.5003Z" fill="white"/>
<path d="M82.3704 25.5003H75.43L74.9063 22.3377H70.3229L69.7333 25.5003H62.793L68.686 0.500977H77.0011L82.3704 25.5003ZM74.1205 17.0537L72.7451 6.57732L71.174 17.0537H74.1205Z" fill="white"/>
</svg>
