<svg width="24" height="30" viewBox="0 0 24 30" fill="none" xmlns="http://www.w3.org/2000/svg">
<g clip-path="url(#clip0_219_12)">
<path fill-rule="evenodd" clip-rule="evenodd" d="M24.0006 29.8864H23.8789L13.8242 17.9316H19.5178C20.7068 17.9316 21.847 18.4045 22.6876 19.2459C23.5285 20.0875 24.0006 21.2288 24.0006 22.419V29.8864Z" fill="white"/>
<path fill-rule="evenodd" clip-rule="evenodd" d="M2.20514 2.28988C2.99867 0.875579 4.49312 0 6.11383 0C10.0164 0 16.8955 0 16.8955 0C16.8955 0 16.4537 0.787694 15.8907 1.79118C15.4029 2.66043 15.4125 3.72369 15.9155 4.58433C16.4188 5.44497 17.3404 5.97381 18.3366 5.97381H20.4773C20.4773 5.97381 11.7454 21.6016 8.39952 27.5896C7.60701 29.0079 6.11029 29.8865 4.4868 29.8865H0.113281C0.113281 29.8865 0.113281 29.8822 0.113281 29.8772C0.113281 29.8635 0.116574 29.8503 0.123153 29.8387C0.424015 29.3025 7.40559 16.8592 11.164 10.1602C11.6518 9.29074 11.6424 8.22748 11.1392 7.36684C10.6359 6.5062 9.71431 5.97736 8.71809 5.97736H0.136312C0.136312 5.97736 1.25878 3.97646 2.20514 2.28988Z" fill="white"/>
</g>
<defs>
<clipPath id="clip0_219_12">
<rect width="24" height="29.8868" fill="white"/>
</clipPath>
</defs>
</svg>
