<svg width="24" height="30" viewBox="0 0 24 30" fill="none" xmlns="http://www.w3.org/2000/svg">
<path fill-rule="evenodd" clip-rule="evenodd" d="M20.4609 5.99649L8.32555 27.6943C7.52927 29.118 6.0257 30 4.39451 30H0V29.9697L11.954 8.6838C12.2673 8.126 12.2612 7.44362 11.938 6.89141C11.6146 6.33921 11.0228 6.00005 10.3831 6.00005H5.1791C4.05028 6.00005 2.99365 6.55607 2.35475 7.48659L2.12518 7.17514C1.11763 5.80708 0.96585 3.98851 1.73213 2.47222C2.49866 0.95594 4.05307 0 5.75215 0H16.8619L15.0016 3.31249C14.6884 3.87054 14.6945 4.55267 15.0176 5.10487C15.3408 5.65708 15.9326 5.99649 16.5725 5.99649H20.4609ZM23.9999 30H23.8776L13.7752 17.9999H19.4958C20.6902 17.9999 21.8361 18.4746 22.6806 19.3191C23.5255 20.164 23.9999 21.3096 23.9999 22.5043V30Z" fill="white"/>
</svg>
