<svg width="99" height="30" viewBox="0 0 99 30" fill="none" xmlns="http://www.w3.org/2000/svg">
<path d="M23.4936 29.9988H15.0861L14.536 26.2037H9.03588L8.32842 29.9988H0L7.07156 0H16.9714L23.4936 29.9988ZM13.5147 19.8631L11.9432 7.29153L10.0572 19.8631H13.5147Z" fill="white"/>
<path d="M73.0787 29.9988H64.4357C64.0428 29.1345 63.7288 28.4588 63.5717 27.9716C62.9431 26.518 62.4713 25.2766 62.0785 24.2473C61.5285 22.8251 60.9003 21.0651 60.1932 18.9751C59.8789 18.2365 59.5647 17.2544 59.1719 16.0287V28.7967C59.1719 29.4567 58.6219 29.9988 57.9933 29.9988H51.0783L51 0H59.1719V12.7523L61.3718 6.5058L63.8072 0H72.2147L65.8506 14.3709L73.0787 29.9988Z" fill="white"/>
<path d="M98.4928 29.9988H90.1644L89.536 26.2037H84.0359L83.3284 29.9988H75L82.0716 0H92.0497L98.4928 29.9988ZM88.593 19.8631L86.9425 7.29153L85.0572 19.8631H88.593Z" fill="white"/>
<g clip-path="url(#clip0_219_2)">
<path fill-rule="evenodd" clip-rule="evenodd" d="M49.0006 29.8864H48.8789L38.8242 17.9316H44.5178C45.7068 17.9316 46.847 18.4045 47.6876 19.2459C48.5285 20.0875 49.0006 21.2288 49.0006 22.419V29.8864Z" fill="white"/>
<path fill-rule="evenodd" clip-rule="evenodd" d="M27.2051 2.28988C27.9987 0.875579 29.4931 0 31.1138 0C35.0164 0 41.8955 0 41.8955 0C41.8955 0 41.4537 0.787694 40.8907 1.79118C40.4029 2.66043 40.4125 3.72369 40.9155 4.58433C41.4188 5.44497 42.3404 5.97381 43.3366 5.97381H45.4773C45.4773 5.97381 36.7454 21.6016 33.3995 27.5896C32.607 29.0079 31.1103 29.8865 29.4868 29.8865H25.1133C25.1133 29.8865 25.1133 29.8822 25.1133 29.8772C25.1133 29.8635 25.1166 29.8503 25.1232 29.8387C25.424 29.3025 32.4056 16.8592 36.164 10.1602C36.6518 9.29074 36.6424 8.22748 36.1392 7.36684C35.6359 6.5062 34.7143 5.97736 33.7181 5.97736H25.1363C25.1363 5.97736 26.2588 3.97646 27.2051 2.28988Z" fill="white"/>
</g>
<defs>
<clipPath id="clip0_219_2">
<rect width="24" height="29.8868" fill="white" transform="translate(25)"/>
</clipPath>
</defs>
</svg>
