<svg width="24" height="24" viewBox="0 0 24 24" fill="none" xmlns="http://www.w3.org/2000/svg">
<path fill-rule="evenodd" clip-rule="evenodd" d="M16.7162 1.28613C20.0285 1.28613 22.7137 3.97297 22.7137 7.28368V16.7172C22.7137 20.0295 20.0269 22.7147 16.7162 22.7147H7.2827C3.97035 22.7147 1.28516 20.0279 1.28516 16.7172V7.28368C1.28516 3.97133 3.97199 1.28613 7.2827 1.28613H16.7162ZM11.9994 6.42899C8.92243 6.42899 6.42801 8.9234 6.42801 12.0004C6.42801 15.0774 8.92243 17.5718 11.9994 17.5718C15.0765 17.5718 17.5709 15.0774 17.5709 12.0004C17.5709 8.9234 15.0765 6.42899 11.9994 6.42899ZM11.9994 8.14328C14.1297 8.14328 15.8566 9.87018 15.8566 12.0004C15.8566 14.1307 14.1297 15.8576 11.9994 15.8576C9.8692 15.8576 8.1423 14.1307 8.1423 12.0004C8.1423 9.87018 9.8692 8.14328 11.9994 8.14328ZM18.2137 4.28613C17.3853 4.28613 16.7137 4.95771 16.7137 5.78613C16.7137 6.61456 17.3853 7.28613 18.2137 7.28613C19.0422 7.28613 19.7137 6.61456 19.7137 5.78613C19.7137 4.95771 19.0422 4.28613 18.2137 4.28613Z" fill="white"/>
</svg>
